<svg width="218" height="60" viewBox="0 0 218 60" fill="none" xmlns="http://www.w3.org/2000/svg">
<g clip-path="url(#clip0_205_764)">
<path d="M76 59.9999L106.1 29.8999L136 59.9999H76Z" fill="url(#paint0_linear_205_764)"/>
<path d="M76 0H106.1L76 32.5V0Z" fill="url(#paint1_linear_205_764)"/>
<path d="M106.1 0L76 31.7V60L106.1 29.9L136 0H106.1Z" fill="url(#paint2_linear_205_764)"/>
</g>
<path d="M59.9958 16.6188C59.9923 16.0154 59.9856 15.4123 59.9689 14.8081C59.9338 13.494 59.8561 12.1679 59.6225 10.8678C59.3855 9.54753 58.9981 8.31986 58.3875 7.12049C57.7881 5.94263 57.0045 4.86479 56.0699 3.9301C55.1354 2.99541 54.0575 2.21196 52.8792 1.61227C51.6808 1.00238 50.4529 0.615044 49.1338 0.378038C47.833 0.143759 46.507 0.0665759 45.1918 0.0310149C44.588 0.0146487 43.9848 0.00777897 43.3811 0.00404102C42.6647 0 41.9477 0 41.2314 0H25.3486H18.7687C18.0517 0 17.3355 0 16.6193 0.00414205C16.0154 0.00788 15.4115 0.0147497 14.8086 0.0311159C14.4798 0.0400061 14.1504 0.0515231 13.8207 0.0673841C12.8319 0.115068 11.8416 0.202455 10.8665 0.378139C9.87711 0.555944 8.93899 0.818206 8.02632 1.19554C7.72213 1.32121 7.42067 1.45982 7.12103 1.61227C6.23726 2.06203 5.40986 2.61515 4.65732 3.25787C4.40647 3.47215 4.16391 3.69632 3.93034 3.93C2.99545 4.86469 2.21189 5.94253 1.61251 7.12039C1.00191 8.31976 0.614981 9.54742 0.377773 10.8677C0.144404 12.1678 0.0668164 13.4939 0.0314575 14.808C0.0148893 15.4122 0.0079185 16.0153 0.0039785 16.6187C-0.000567652 17.3354 3.8502e-05 18.0522 3.8502e-05 18.7686V28.5498V41.2311C3.8502e-05 41.9483 -0.000668677 42.6643 0.0039785 43.3815C0.0079185 43.9849 0.0148893 44.5881 0.0314575 45.1912C0.0668164 46.506 0.144303 47.8324 0.377773 49.1319C0.614981 50.4518 1.00191 51.6806 1.61251 52.8796C2.21189 54.0578 2.99545 55.1353 3.93034 56.0696C4.86452 57.0047 5.94267 57.7881 7.12113 58.3882C8.3196 58.9981 9.54736 59.385 10.8668 59.622C12.1668 59.856 13.4938 59.9337 14.8087 59.9689C15.4116 59.985 16.0155 59.9921 16.6194 59.9956C17.3356 60.0007 18.0518 60 18.7688 60H41.2314C41.9477 60 42.6647 60.0007 43.381 59.9956C43.9847 59.9921 44.5879 59.985 45.1917 59.9689C46.5069 59.9337 47.8329 59.8559 49.1337 59.622C50.4528 59.385 51.6807 58.998 52.8791 58.3882C54.0574 57.7882 55.1353 57.0047 56.0698 56.0696C57.0044 55.1352 57.7881 54.0578 58.3874 52.8796C58.998 51.6806 59.3854 50.4519 59.6224 49.1319C59.856 47.8324 59.9337 46.506 59.9688 45.1912C59.9854 44.5881 59.9921 43.985 59.9957 43.3815C60.0004 42.6643 60 41.9483 60 41.2311V18.7686C60.0001 18.0522 60.0004 17.3354 59.9958 16.6188Z" fill="#F05138"/>
<path d="M47.5432 37.0367C47.5418 37.0348 47.5405 37.0335 47.539 37.0318C47.6053 36.8059 47.6738 36.5814 47.7319 36.3499C50.2222 26.4283 44.1444 14.6982 33.8595 8.52197C38.3665 14.6319 40.3594 22.0324 38.5888 28.5043C38.4309 29.0816 38.2411 29.6356 38.0312 30.1741C37.8035 30.0245 37.5166 29.8546 37.1313 29.6422C37.1313 29.6422 26.9005 23.3254 15.8121 12.1524C15.5211 11.8592 21.7249 21.0194 28.7655 28.4579C25.4484 26.5963 16.2041 19.8703 10.3519 14.514C11.0709 15.7131 11.9261 16.8677 12.8662 17.9793C17.7533 24.1771 24.1267 31.8242 31.7623 37.6963C26.3974 40.9795 18.8168 41.2348 11.269 37.6998C9.40219 36.8249 7.64718 35.7693 6.02258 34.5699C9.21752 39.6803 14.1382 44.0895 20.1271 46.6635C27.2691 49.7327 34.3713 49.5246 39.661 46.7138L39.6568 46.7199C39.681 46.7046 39.7117 46.6879 39.7367 46.6725C39.954 46.5557 40.1695 46.4368 40.3804 46.3112C42.9219 44.992 47.9418 43.6536 50.6363 48.8962C51.2962 50.1793 52.6984 43.3798 47.5432 37.0367Z" fill="white"/>
<path d="M152 59.9091V25H157.267V55.375H173.085V59.9091H152Z" fill="#747474"/>
<path d="M184.361 25V59.9091H179.094V25H184.361Z" fill="#747474"/>
<path d="M192.031 59.9091V25H204.815C207.293 25 209.344 25.4091 210.969 26.2273C212.594 27.0341 213.81 28.1307 214.616 29.517C215.423 30.892 215.827 32.4432 215.827 34.1705C215.827 35.625 215.56 36.8523 215.026 37.8523C214.491 38.8409 213.776 39.6364 212.878 40.2386C211.991 40.8295 211.014 41.2614 209.946 41.5341V41.875C211.105 41.9318 212.236 42.3068 213.338 43C214.452 43.6818 215.372 44.6534 216.099 45.9148C216.827 47.1761 217.19 48.7102 217.19 50.517C217.19 52.3011 216.77 53.9034 215.929 55.3239C215.099 56.733 213.815 57.8523 212.077 58.6818C210.338 59.5 208.116 59.9091 205.412 59.9091H192.031ZM197.298 55.392H204.901C207.423 55.392 209.23 54.9034 210.321 53.9261C211.412 52.9489 211.957 51.7273 211.957 50.2614C211.957 49.1591 211.679 48.1477 211.122 47.2273C210.565 46.3068 209.77 45.5739 208.736 45.0284C207.713 44.483 206.497 44.2102 205.088 44.2102H197.298V55.392ZM197.298 40.1023H204.355C205.537 40.1023 206.599 39.875 207.543 39.4205C208.497 38.9659 209.253 38.3295 209.81 37.5114C210.378 36.6818 210.662 35.7045 210.662 34.5795C210.662 33.1364 210.156 31.9261 209.145 30.9489C208.134 29.9716 206.582 29.483 204.491 29.483H197.298V40.1023Z" fill="#747474"/>
<defs>
<linearGradient id="paint0_linear_205_764" x1="91.9594" y1="74.0142" x2="120.307" y2="45.6667" gradientUnits="userSpaceOnUse">
<stop offset="0.09677" stop-color="#0095D5"/>
<stop offset="0.3007" stop-color="#238AD9"/>
<stop offset="0.6211" stop-color="#557BDE"/>
<stop offset="0.8643" stop-color="#7472E2"/>
<stop offset="1" stop-color="#806EE3"/>
</linearGradient>
<linearGradient id="paint1_linear_205_764" x1="80.2092" y1="12.0591" x2="96.6734" y2="-4.405" gradientUnits="userSpaceOnUse">
<stop offset="0.1183" stop-color="#0095D5"/>
<stop offset="0.4178" stop-color="#3C83DC"/>
<stop offset="0.6962" stop-color="#6D74E1"/>
<stop offset="0.8333" stop-color="#806EE3"/>
</linearGradient>
<linearGradient id="paint2_linear_205_764" x1="65.8983" y1="55.1638" x2="121.732" y2="-0.669401" gradientUnits="userSpaceOnUse">
<stop offset="0.1075" stop-color="#C757BC"/>
<stop offset="0.2138" stop-color="#D0609A"/>
<stop offset="0.4254" stop-color="#E1725C"/>
<stop offset="0.6048" stop-color="#EE7E2F"/>
<stop offset="0.743" stop-color="#F58613"/>
<stop offset="0.8232" stop-color="#F88909"/>
</linearGradient>
<clipPath id="clip0_205_764">
<rect width="60" height="60" fill="white" transform="translate(76)"/>
</clipPath>
</defs>
</svg>
